<svg width="217" height="222" viewBox="0 0 217 222" fill="none" xmlns="http://www.w3.org/2000/svg">
<mask id="path-1-outside-1_2018_108" maskUnits="userSpaceOnUse" x="0" y="-0.999969" width="217" height="223" fill="black">
<rect fill="white" y="-0.999969" width="217" height="223"/>
<path fill-rule="evenodd" clip-rule="evenodd" d="M107.823 66.6029C107.475 60.7721 106.448 54.6733 104.685 48.5145C96.4759 19.8432 75.4021 0.728853 57.6153 5.82149C39.8284 10.9141 32.0641 38.2852 40.2731 66.9566C42.389 74.3469 45.3597 81.1022 48.9085 86.9717C22.348 106.361 5 136.256 5 161.6C5 203.022 51.3385 216.6 108.5 216.6C165.661 216.6 212 203.022 212 161.6C212 137.345 196.11 108.92 171.462 89.5269C173.873 86.9239 176.184 84.0957 178.355 81.0589C195.699 56.7974 197.557 28.4071 182.506 17.6474C167.455 6.88771 141.194 17.833 123.85 42.0945C118.131 50.0941 114.096 58.5425 111.795 66.6598C110.701 66.6204 109.603 66.6004 108.5 66.6004C108.274 66.6004 108.048 66.6013 107.823 66.6029Z"/>
</mask>
<path fill-rule="evenodd" clip-rule="evenodd" d="M107.823 66.6029C107.475 60.7721 106.448 54.6733 104.685 48.5145C96.4759 19.8432 75.4021 0.728853 57.6153 5.82149C39.8284 10.9141 32.0641 38.2852 40.2731 66.9566C42.389 74.3469 45.3597 81.1022 48.9085 86.9717C22.348 106.361 5 136.256 5 161.6C5 203.022 51.3385 216.6 108.5 216.6C165.661 216.6 212 203.022 212 161.6C212 137.345 196.11 108.92 171.462 89.5269C173.873 86.9239 176.184 84.0957 178.355 81.0589C195.699 56.7974 197.557 28.4071 182.506 17.6474C167.455 6.88771 141.194 17.833 123.85 42.0945C118.131 50.0941 114.096 58.5425 111.795 66.6598C110.701 66.6204 109.603 66.6004 108.5 66.6004C108.274 66.6004 108.048 66.6013 107.823 66.6029Z" fill="white"/>
<path d="M104.685 48.5145L99.8781 49.8908L99.8781 49.8908L104.685 48.5145ZM107.823 66.6029L102.832 66.901L103.115 71.638L107.86 71.6028L107.823 66.6029ZM57.6153 5.82149L56.239 1.01463L57.6153 5.82149ZM40.2731 66.9566L45.0799 65.5803L45.0799 65.5803L40.2731 66.9566ZM48.9085 86.9717L51.8566 91.0101L55.559 88.3074L53.1873 84.3847L48.9085 86.9717ZM171.462 89.5269L167.794 86.1294L164.111 90.1054L168.37 93.4564L171.462 89.5269ZM178.355 81.0589L174.287 78.1511L174.287 78.1511L178.355 81.0589ZM182.506 17.6474L185.414 13.5799L185.414 13.5799L182.506 17.6474ZM123.85 42.0945L119.782 39.1867L119.782 39.1867L123.85 42.0945ZM111.795 66.6598L111.615 71.6565L115.536 71.7977L116.606 68.0232L111.795 66.6598ZM99.8781 49.8908C101.543 55.706 102.506 61.4435 102.832 66.901L112.814 66.3048C112.443 60.1007 111.354 53.6405 109.492 47.1382L99.8781 49.8908ZM58.9915 10.6283C65.6121 8.73277 73.5929 11.1446 81.3826 18.21C89.1067 25.2159 95.9884 36.3053 99.8781 49.8908L109.492 47.1382C105.173 32.0524 97.4128 19.2489 88.1009 10.803C78.8548 2.41661 67.4052 -2.18242 56.239 1.01463L58.9915 10.6283ZM45.0799 65.5803C41.1902 51.9948 41.1601 38.9437 44.0059 28.9115C46.876 18.794 52.3709 12.5239 58.9915 10.6283L56.239 1.01463C45.0728 4.21169 37.7921 14.1735 34.3855 26.1825C30.9547 38.2769 31.1469 53.247 35.4662 68.3329L45.0799 65.5803ZM53.1873 84.3847C49.875 78.9065 47.0784 72.5601 45.0799 65.5803L35.4662 68.3329C37.6997 76.1336 40.8444 83.2979 44.6298 89.5587L53.1873 84.3847ZM10 161.6C10 138.275 26.2021 109.738 51.8566 91.0101L45.9605 82.9333C18.4939 102.984 0 134.238 0 161.6H10ZM108.5 211.6C80.1653 211.6 55.1479 208.212 37.3953 200.087C28.5755 196.05 21.7617 190.941 17.1568 184.7C12.5947 178.517 10 170.958 10 161.6H0C0 172.953 3.19761 182.625 9.11026 190.638C14.9801 198.593 23.3236 204.644 33.2336 209.18C52.9407 218.199 79.6733 221.6 108.5 221.6V211.6ZM207 161.6C207 170.958 204.405 178.517 199.843 184.7C195.238 190.941 188.424 196.05 179.605 200.087C161.852 208.212 136.835 211.6 108.5 211.6V221.6C137.327 221.6 164.059 218.199 183.766 209.18C193.676 204.644 202.02 198.593 207.89 190.638C213.802 182.625 217 172.953 217 161.6H207ZM168.37 93.4564C192.181 112.191 207 139.292 207 161.6H217C217 135.398 200.039 105.65 174.554 85.5975L168.37 93.4564ZM174.287 78.1511C172.238 81.0176 170.061 83.6821 167.794 86.1294L175.131 92.9245C177.686 90.1656 180.13 87.1738 182.422 83.9667L174.287 78.1511ZM179.599 21.7149C185.201 25.7199 188.276 33.4691 187.589 43.9633C186.908 54.3691 182.505 66.6552 174.287 78.1511L182.422 83.9667C191.548 71.2011 196.747 57.1614 197.568 44.6167C198.384 32.1605 194.863 20.3346 185.414 13.5799L179.599 21.7149ZM127.917 45.0023C136.136 33.5064 146.336 25.3649 155.961 21.3532C165.669 17.3074 173.996 17.71 179.599 21.7149L185.414 13.5799C175.965 6.82516 163.637 7.32058 152.114 12.1228C140.51 16.9592 128.908 26.4212 119.782 39.1867L127.917 45.0023ZM116.606 68.0232C118.74 60.4922 122.513 52.562 127.917 45.0023L119.782 39.1867C113.749 47.6261 109.452 56.5928 106.985 65.2964L116.606 68.0232ZM108.5 71.6004C109.542 71.6004 110.581 71.6193 111.615 71.6565L111.975 61.663C110.821 61.6215 109.663 61.6004 108.5 61.6004V71.6004ZM107.86 71.6028C108.073 71.6012 108.286 71.6004 108.5 71.6004V61.6004C108.262 61.6004 108.024 61.6013 107.786 61.6031L107.86 71.6028Z" fill="black" mask="url(#path-1-outside-1_2018_108)"/>
<circle cx="71.5" cy="132.5" r="9.5" fill="black"/>
<circle cx="144.5" cy="132.5" r="9.5" fill="black"/>
<path d="M72 162C72 186.5 108.5 162 108.5 162C108.5 162 145 184.5 145 162" stroke="black" stroke-width="6" stroke-linecap="round"/>
<g filter="url(#filter0_f_2018_108)">
<ellipse cx="39" cy="158" rx="23" ry="16" fill="#F9B0B8" fill-opacity="0.33"/>
</g>
<path d="M24 161.618L33.1412 154.762M44 161.618L53.1412 154.762M34 161.618L43.1412 154.762" stroke="#F9B0B8" stroke-width="3" stroke-linecap="round"/>
<g filter="url(#filter1_f_2018_108)">
<ellipse cx="177" cy="158" rx="23" ry="16" fill="#F9B0B8" fill-opacity="0.33"/>
</g>
<path d="M162 161.618L171.141 154.762M182 161.618L191.141 154.762M172 161.618L181.141 154.762" stroke="#F9B0B8" stroke-width="3" stroke-linecap="round"/>
<defs>
<filter id="filter0_f_2018_108" x="11.4" y="137.4" width="55.2" height="41.2" filterUnits="userSpaceOnUse" color-interpolation-filters="sRGB">
<feFlood flood-opacity="0" result="BackgroundImageFix"/>
<feBlend mode="normal" in="SourceGraphic" in2="BackgroundImageFix" result="shape"/>
<feGaussianBlur stdDeviation="2.3" result="effect1_foregroundBlur_2018_108"/>
</filter>
<filter id="filter1_f_2018_108" x="149.4" y="137.4" width="55.2" height="41.2" filterUnits="userSpaceOnUse" color-interpolation-filters="sRGB">
<feFlood flood-opacity="0" result="BackgroundImageFix"/>
<feBlend mode="normal" in="SourceGraphic" in2="BackgroundImageFix" result="shape"/>
<feGaussianBlur stdDeviation="2.3" result="effect1_foregroundBlur_2018_108"/>
</filter>
</defs>
</svg>
