<svg width="207" height="212" viewBox="0 0 207 212" fill="none" xmlns="http://www.w3.org/2000/svg">
<path fill-rule="evenodd" clip-rule="evenodd" d="M99.685 43.5145C101.448 49.6733 102.475 55.772 102.823 61.6029C103.048 61.6012 103.274 61.6004 103.5 61.6004C104.603 61.6004 105.701 61.6203 106.795 61.6597C109.096 53.5424 113.131 45.094 118.85 37.0945C136.194 12.833 162.455 1.88768 177.506 12.6474C192.557 23.4071 190.699 51.7974 173.355 76.0589C171.184 79.0957 168.873 81.9238 166.462 84.5269C191.11 103.92 207 132.345 207 156.6C207 198.022 160.661 211.6 103.5 211.6C46.3385 211.6 0 198.022 0 156.6C0 131.256 17.348 101.361 43.9085 81.9717C40.3597 76.1022 37.389 69.3468 35.2731 61.9566C27.0641 33.2852 34.8284 5.9141 52.6153 0.821462C70.4021 -4.27117 91.4759 14.8431 99.685 43.5145ZM66.5 137C71.7467 137 76 132.747 76 127.5C76 122.253 71.7467 118 66.5 118C61.2533 118 57 122.253 57 127.5C57 132.747 61.2533 137 66.5 137ZM149 127.5C149 132.747 144.747 137 139.5 137C134.253 137 130 132.747 130 127.5C130 122.253 134.253 118 139.5 118C144.747 118 149 122.253 149 127.5ZM103.431 153.433L101.829 154.509L101.829 154.509L101.828 154.509L101.826 154.51L101.811 154.521L101.742 154.566C101.679 154.607 101.584 154.67 101.457 154.752C101.204 154.917 100.827 155.158 100.345 155.459C99.3793 156.061 97.9948 156.897 96.3323 157.827C92.9854 159.699 88.6064 161.897 84.2955 163.343C79.8337 164.841 76.0893 165.308 73.6577 164.492C72.5679 164.126 71.7459 163.506 71.1455 162.498C70.5091 161.43 70 159.716 70 157C70 155.343 68.6569 154 67 154C65.3431 154 64 155.343 64 157C64 160.409 64.6315 163.288 65.9912 165.57C67.3869 167.912 69.4165 169.397 71.7486 170.18C76.1607 171.661 81.5413 170.597 86.2045 169.032C91.0186 167.416 95.7646 165.019 99.2614 163.064C101.021 162.079 102.488 161.193 103.519 160.551L103.567 160.52L103.578 160.526C104.608 161.116 106.074 161.929 107.832 162.833C111.328 164.628 116.066 166.825 120.866 168.304C125.528 169.741 130.842 170.696 135.181 169.359C137.464 168.655 139.514 167.303 140.948 165.093C142.353 162.928 143 160.199 143 157C143 155.343 141.657 154 140 154C138.343 154 137 155.343 137 157C137 159.426 136.507 160.915 135.915 161.827C135.353 162.693 134.551 163.275 133.413 163.625C130.908 164.397 127.097 163.946 122.634 162.571C118.309 161.238 113.922 159.215 110.574 157.496C108.91 156.641 107.525 155.872 106.559 155.319C106.076 155.043 105.699 154.821 105.446 154.67C105.319 154.595 105.223 154.537 105.16 154.499L105.092 154.457L105.076 154.448L105.074 154.446L105.074 154.446L105.074 154.446L103.431 153.433ZM29.3412 148.862C29.8382 149.524 29.7039 150.465 29.0412 150.962L19.9 157.818C19.2373 158.315 18.2971 158.18 17.8 157.518C17.3029 156.855 17.4373 155.915 18.1 155.418L27.2412 148.562C27.9039 148.065 28.8441 148.199 29.3412 148.862ZM39.3412 148.862C39.8382 149.524 39.7039 150.465 39.0412 150.962L29.9 157.818C29.2373 158.315 28.2971 158.18 27.8 157.518C27.3029 156.855 27.4373 155.915 28.1 155.418L37.2412 148.562C37.9039 148.065 38.8441 148.199 39.3412 148.862ZM49.3412 148.862C49.8382 149.524 49.7039 150.465 49.0412 150.962L39.9 157.818C39.2373 158.315 38.2971 158.18 37.8 157.518C37.3029 156.855 37.4373 155.915 38.1 155.418L47.2412 148.562C47.9039 148.065 48.8441 148.199 49.3412 148.862ZM167.041 150.962C167.704 150.465 167.838 149.524 167.341 148.862C166.844 148.199 165.904 148.065 165.241 148.562L156.1 155.418C155.437 155.915 155.303 156.855 155.8 157.518C156.297 158.18 157.237 158.315 157.9 157.818L167.041 150.962ZM177.041 150.962C177.704 150.465 177.838 149.524 177.341 148.862C176.844 148.199 175.904 148.065 175.241 148.562L166.1 155.418C165.437 155.915 165.303 156.855 165.8 157.518C166.297 158.18 167.237 158.315 167.9 157.818L177.041 150.962ZM187.041 150.962C187.704 150.465 187.838 149.524 187.341 148.862C186.844 148.199 185.904 148.065 185.241 148.562L176.1 155.418C175.437 155.915 175.303 156.855 175.8 157.518C176.297 158.18 177.237 158.315 177.9 157.818L187.041 150.962Z" fill="white"/>
</svg>
