<svg width="32" height="16" viewBox="0 0 32 16" fill="none" xmlns="http://www.w3.org/2000/svg">
<path d="M8.33333 3.00011C6.81481 3.03715 5.55556 3.55566 4.55556 4.55566C3.55556 5.55566 3.03704 6.81492 3 8.33344C3.03704 9.85196 3.55556 11.1112 4.55556 12.1112C5.55556 13.1112 6.81481 13.6297 8.33333 13.6668L24.6667 13.6667C26.1852 13.6297 27.4444 13.1111 28.4444 12.1111C29.4444 11.1111 29.963 9.85188 30 8.33336C29.963 6.81484 29.4444 5.55558 28.4444 4.55558C27.4444 3.55558 26.1852 3.03706 24.6667 3.00003L8.33333 3.00011ZM24.6667 5.66669C25.1481 5.66669 25.5926 5.78706 26 6.02781C26.4074 6.26855 26.7315 6.59262 26.9722 7.00003C27.213 7.42595 27.3333 7.8704 27.3333 8.33336C27.3333 8.79632 27.213 9.24077 26.9722 9.66669C26.7315 10.0741 26.4074 10.3982 26 10.6389C25.5926 10.8797 25.1481 11 24.6667 11C24.1852 11 23.7407 10.8797 23.3333 10.6389C22.9259 10.3982 22.6019 10.0741 22.3611 9.66669C22.1204 9.24077 22 8.79632 22 8.33336C22 7.8704 22.1204 7.42595 22.3611 7.00003C22.6019 6.59262 22.9259 6.26855 23.3333 6.02781C23.7407 5.78706 24.1852 5.66669 24.6667 5.66669Z" fill="black"/>
</svg>
