<svg width="32" height="16" viewBox="0 0 32 16" fill="none" xmlns="http://www.w3.org/2000/svg">
<path d="M24.6667 4.33342C25.7963 4.37045 26.7407 4.75934 27.5 5.50008C28.2407 6.25934 28.6296 7.20379 28.6667 8.33342C28.6296 9.46304 28.2407 10.4075 27.5 11.1667C26.7407 11.9075 25.7963 12.2964 24.6667 12.3334H8.33333C7.2037 12.2964 6.25926 11.9075 5.5 11.1667C4.75926 10.4075 4.37037 9.46304 4.33333 8.33342C4.37037 7.20379 4.75926 6.25934 5.5 5.50008C6.25926 4.75934 7.2037 4.37045 8.33333 4.33342H24.6667ZM30 8.33342C29.963 6.8149 29.4444 5.55564 28.4444 4.55564C27.4444 3.55564 26.1852 3.03712 24.6667 3.00008H8.33333C6.81481 3.03712 5.55556 3.55564 4.55556 4.55564C3.55556 5.55564 3.03704 6.8149 3 8.33342C3.03704 9.85193 3.55556 11.1112 4.55556 12.1112C5.55556 13.1112 6.81481 13.6297 8.33333 13.6667H24.6667C26.1852 13.6297 27.4444 13.1112 28.4444 12.1112C29.4444 11.1112 29.963 9.85193 30 8.33342ZM8.33333 11.0001C8.81481 11.0001 9.25926 10.8797 9.66667 10.639C10.0741 10.3982 10.3981 10.0742 10.6389 9.66675C10.8796 9.24082 11 8.79638 11 8.33342C11 7.87045 10.8796 7.42601 10.6389 7.00008C10.3981 6.59267 10.0741 6.2686 9.66667 6.02786C9.25926 5.78712 8.81481 5.66675 8.33333 5.66675C7.85185 5.66675 7.40741 5.78712 7 6.02786C6.59259 6.2686 6.26852 6.59267 6.02778 7.00008C5.78704 7.42601 5.66667 7.87045 5.66667 8.33342C5.66667 8.79638 5.78704 9.24082 6.02778 9.66675C6.26852 10.0742 6.59259 10.3982 7 10.639C7.40741 10.8797 7.85185 11.0001 8.33333 11.0001Z" fill="black"/>
</svg>
